<?xml version="1.0" encoding="UTF-8"?>
<svg width="16px" height="16px" viewBox="0 0 16 16" version="1.1" xmlns="http://www.w3.org/2000/svg" xmlns:xlink="http://www.w3.org/1999/xlink">
    <g id="Icon/public-opinion" stroke="none" stroke-width="1" fill="currentColor" fill-rule="evenodd">
        <path d="M14,0 C15.1045695,0 16,0.8954305 16,2 L16,6 C16,7.1045695 15.1045695,8 14,8 L13,9 L13,12 C13,13.1045695 12.1045695,14 11,14 L5,14 L5,16 L2.33333333,14 L2,14 C0.8954305,14 0,13.1045695 0,12 L0,6 C0,4.8954305 0.8954305,4 2,4 L5,4 L5,2 C5,0.8954305 5.8954305,0 7,0 L14,0 Z M11,5 L2,5 C1.44771525,5 1,5.44771525 1,6 L1,12 C1,12.5522847 1.44771525,13 2,13 L2.66666667,13 L4,14 L4,13 L11,13 C11.5522847,13 12,12.5522847 12,12 L12,6 C12,5.44771525 11.5522847,5 11,5 Z M8.39999962,6 C9.39999962,6 10,6.5 10,8.24264069 C10,9.40440115 8.83333333,10.6568542 6.5,12 C4.16666667,10.6568542 3,9.40440115 3,8.24264069 C3,6.5 3.5999999,6 4.5999999,6 C6,6 6.38633428,7.31055715 6.5,7.5 C6.61366568,7.31055712 7,6 8.39999962,6 Z M8.39999962,7 C8.15579615,7 7.79554476,7.28440905 7.35749302,8.0144956 C6.96908972,8.66183471 6.03091056,8.66183482 5.6425071,8.0144958 C5.20445506,7.28440915 4.84420346,7 4.5999999,7 C4.10732146,7 4,7.13379283 4,8.24264069 C4,8.87558788 4.79482623,9.7826602 6.5,10.8360666 C8.20517377,9.7826602 9,8.87558788 9,8.24264069 C9,7.13379303 8.89267833,7 8.39999962,7 Z M14,1 L7,1 C6.44771525,1 6,1.44771525 6,2 L6,4 L11,4 C12.1045695,4 13,4.8954305 13,6 L13,7.585 L13.5857864,7 L14,7 C14.5522847,7 15,6.55228475 15,6 L15,2 C15,1.44771525 14.5522847,1 14,1 Z" id="Combined-Shape" fill="currentColor" fill-rule="nonzero"></path>
    </g>
</svg>